<?xml version="1.0" standalone="no"?><!DOCTYPE svg PUBLIC "-//W3C//DTD SVG 1.1//EN" "http://www.w3.org/Graphics/SVG/1.1/DTD/svg11.dtd"><svg t="1558401420457" class="icon" style="" viewBox="0 0 1024 1024" version="1.1" xmlns="http://www.w3.org/2000/svg" p-id="4375" xmlns:xlink="http://www.w3.org/1999/xlink" width="200" height="200"><defs><style type="text/css"></style></defs><path d="M836.266667 0H187.733333C122.311111 0 71.111111 51.2 71.111111 116.622222v790.755556c0 65.422222 51.2 116.622222 116.622222 116.622222h648.533334c65.422222 0 116.622222-51.2 116.622222-116.622222V116.622222c0-65.422222-51.2-116.622222-116.622222-116.622222z m91.022222 901.688889c0 48.355556-39.822222 88.177778-88.177778 88.177778H187.733333c-48.355556 0-88.177778-39.822222-88.177777-88.177778V116.622222C99.555556 68.266667 139.377778 28.444444 187.733333 28.444444h651.377778c48.355556 0 88.177778 39.822222 88.177778 88.177778v785.066667z" fill="#666666" p-id="4376"></path><path d="M725.333333 443.733333H571.733333c-8.533333 0-14.222222 8.533333-14.222222 14.222223 0 8.533333 5.688889 14.222222 14.222222 14.222222H725.333333c8.533333 0 14.222222-8.533333 14.222223-14.222222 0-8.533333-5.688889-14.222222-14.222223-14.222223zM725.333333 366.933333h-62.577777c-8.533333 0-14.222222 8.533333-14.222223 14.222223 0 8.533333 5.688889 14.222222 14.222223 14.222222h62.577777c8.533333 0 14.222222-8.533333 14.222223-14.222222 0-8.533333-5.688889-14.222222-14.222223-14.222223zM452.266667 398.222222h150.755555c8.533333 0 14.222222-8.533333 14.222222-14.222222 0-8.533333-5.688889-14.222222-14.222222-14.222222H449.422222c-8.533333 0-14.222222 8.533333-14.222222 14.222222 2.844444 8.533333 8.533333 14.222222 17.066667 14.222222zM273.066667 398.222222h122.311111c8.533333 0 14.222222-5.688889 14.222222-14.222222s-5.688889-14.222222-14.222222-14.222222H270.222222c-8.533333 0-14.222222 5.688889-14.222222 14.222222s8.533333 14.222222 17.066667 14.222222zM273.066667 475.022222h62.577777c8.533333 0 14.222222-8.533333 14.222223-14.222222 0-8.533333-5.688889-14.222222-14.222223-14.222222H261.688889c-8.533333 2.844444-11.377778 11.377778-8.533333 19.911111 2.844444 5.688889 11.377778 11.377778 19.911111 8.533333zM273.066667 566.044444H426.666667c8.533333 0 14.222222-8.533333 14.222222-14.222222 0-8.533333-5.688889-14.222222-14.222222-14.222222H264.533333c-8.533333 2.844444-11.377778 11.377778-8.533333 19.911111 0 5.688889 8.533333 11.377778 17.066667 8.533333zM332.8 608.711111H273.066667c-8.533333 0-14.222222 5.688889-14.222223 14.222222s5.688889 14.222222 14.222223 14.222223h59.733333c8.533333 0 14.222222-5.688889 14.222222-14.222223s-5.688889-14.222222-14.222222-14.222222zM500.622222 608.711111h-110.933333c-8.533333 0-14.222222 8.533333-14.222222 14.222222 0 8.533333 8.533333 14.222222 14.222222 14.222223h110.933333c8.533333 0 14.222222-8.533333 14.222222-14.222223 2.844444-8.533333-5.688889-14.222222-14.222222-14.222222zM395.377778 443.733333c-8.533333 0-17.066667 8.533333-14.222222 14.222223 0 8.533333 5.688889 14.222222 14.222222 14.222222H520.533333c8.533333 0 14.222222-8.533333 14.222223-14.222222 0-8.533333-5.688889-14.222222-14.222223-14.222223h-125.155555zM634.311111 534.755556H483.555556c-8.533333 0-14.222222 5.688889-14.222223 14.222222s5.688889 14.222222 14.222223 14.222222H637.155556c8.533333 0 14.222222-8.533333 14.222222-14.222222 0-8.533333-8.533333-14.222222-17.066667-14.222222zM725.333333 534.755556h-31.288889c-8.533333 0-17.066667 5.688889-17.066666 14.222222s8.533333 14.222222 17.066666 17.066666H728.177778c8.533333 0 14.222222-8.533333 14.222222-14.222222-2.844444-11.377778-8.533333-17.066667-17.066667-17.066666zM790.755556 88.177778s-2.844444 0 0 0c-8.533333 0-14.222222 5.688889-17.066667 11.377778-2.844444 8.533333 2.844444 17.066667 11.377778 17.066666 62.577778 5.688889 48.355556 85.333333 48.355555 133.688889v14.222222c0 8.533333 5.688889 14.222222 14.222222 14.222223s14.222222-5.688889 14.222223-14.222223v-11.377777c0-45.511111 11.377778-156.444444-71.111111-164.977778z" fill="#666666" p-id="4377"></path><path d="M830.577778 321.422222a14.222222 14.222222 0 1 0 28.444444 0 14.222222 14.222222 0 1 0-28.444444 0Z" fill="#666666" p-id="4378"></path></svg>